<mxfile host="app.diagrams.net" modified="2023-09-24T11:56:52.109Z" agent="Mozilla/5.0 (Windows NT 10.0; Win64; x64) AppleWebKit/537.36 (KHTML, like Gecko) Chrome/116.0.0.0 Safari/537.36" etag="ZHmWWG-uBSnXEJMdG5mS" version="21.8.1" type="google">
  <diagram name="PÃ¡gina-1" id="eT5QHhfMvSM6qU86VwFE">
    <mxGraphModel grid="1" page="1" gridSize="10" guides="1" tooltips="1" connect="1" arrows="1" fold="1" pageScale="1" pageWidth="827" pageHeight="1169" math="0" shadow="0">
      <root>
        <mxCell id="0" />
        <mxCell id="1" parent="0" />
        <mxCell id="ZoevF2g2s9DGprO-lqju-2" value="Estudiante" style="swimlane;fontStyle=1;align=center;verticalAlign=top;childLayout=stackLayout;horizontal=1;startSize=26;horizontalStack=0;resizeParent=1;resizeParentMax=0;resizeLast=0;collapsible=1;marginBottom=0;whiteSpace=wrap;html=1;" vertex="1" parent="1">
          <mxGeometry x="30" y="-1080" width="210" height="154" as="geometry" />
        </mxCell>
        <mxCell id="ZoevF2g2s9DGprO-lqju-3" value="&lt;font style=&quot;font-size: 12px;&quot;&gt;&lt;br&gt;&lt;span data-lucid-content=&quot;{&amp;quot;t&amp;quot;:&amp;quot;+ ID:Int\n+ nombre:String\n+apellidos:String\n+Dni:String\n+Curso:Int&amp;quot;,&amp;quot;m&amp;quot;:[{&amp;quot;s&amp;quot;:0,&amp;quot;n&amp;quot;:&amp;quot;a&amp;quot;,&amp;quot;v&amp;quot;:&amp;quot;center&amp;quot;},{&amp;quot;s&amp;quot;:0,&amp;quot;n&amp;quot;:&amp;quot;c&amp;quot;,&amp;quot;v&amp;quot;:&amp;quot;333333ff&amp;quot;,&amp;quot;e&amp;quot;:65},{&amp;quot;s&amp;quot;:9,&amp;quot;n&amp;quot;:&amp;quot;a&amp;quot;,&amp;quot;v&amp;quot;:&amp;quot;center&amp;quot;},{&amp;quot;s&amp;quot;:25,&amp;quot;n&amp;quot;:&amp;quot;a&amp;quot;,&amp;quot;v&amp;quot;:&amp;quot;center&amp;quot;},{&amp;quot;s&amp;quot;:43,&amp;quot;n&amp;quot;:&amp;quot;a&amp;quot;,&amp;quot;v&amp;quot;:&amp;quot;center&amp;quot;},{&amp;quot;s&amp;quot;:55,&amp;quot;n&amp;quot;:&amp;quot;a&amp;quot;,&amp;quot;v&amp;quot;:&amp;quot;center&amp;quot;}]}&quot; data-lucid-type=&quot;application/vnd.lucid.text&quot;&gt;&lt;span style=&quot;color:#333333;&quot;&gt;- ID:Long&lt;br&gt;&lt;/span&gt;&lt;span style=&quot;color:#333333;&quot;&gt;-nombre:String&lt;br&gt;&lt;/span&gt;&lt;span style=&quot;color:#333333;&quot;&gt;-apellidos:String&lt;br&gt;&lt;/span&gt;&lt;span style=&quot;color:#333333;&quot;&gt;-dni:String&lt;/span&gt;&lt;span style=&quot;color:#333333;&quot;&gt;&lt;br&gt;&lt;/span&gt;&lt;/span&gt;-telefono:String&lt;br&gt;&lt;/font&gt;" style="text;strokeColor=none;fillColor=none;align=left;verticalAlign=top;spacingLeft=4;spacingRight=4;overflow=hidden;rotatable=0;points=[[0,0.5],[1,0.5]];portConstraint=eastwest;whiteSpace=wrap;html=1;" vertex="1" parent="ZoevF2g2s9DGprO-lqju-2">
          <mxGeometry y="26" width="210" height="94" as="geometry" />
        </mxCell>
        <mxCell id="ZoevF2g2s9DGprO-lqju-4" value="" style="line;strokeWidth=1;fillColor=none;align=left;verticalAlign=middle;spacingTop=-1;spacingLeft=3;spacingRight=3;rotatable=0;labelPosition=right;points=[];portConstraint=eastwest;strokeColor=inherit;" vertex="1" parent="ZoevF2g2s9DGprO-lqju-2">
          <mxGeometry y="120" width="210" height="8" as="geometry" />
        </mxCell>
        <mxCell id="ZoevF2g2s9DGprO-lqju-5" value="//Getters y Setters" style="text;strokeColor=none;fillColor=none;align=left;verticalAlign=top;spacingLeft=4;spacingRight=4;overflow=hidden;rotatable=0;points=[[0,0.5],[1,0.5]];portConstraint=eastwest;whiteSpace=wrap;html=1;" vertex="1" parent="ZoevF2g2s9DGprO-lqju-2">
          <mxGeometry y="128" width="210" height="26" as="geometry" />
        </mxCell>
        <mxCell id="ZoevF2g2s9DGprO-lqju-7" value="Materia" style="swimlane;fontStyle=1;align=center;verticalAlign=top;childLayout=stackLayout;horizontal=1;startSize=26;horizontalStack=0;resizeParent=1;resizeParentMax=0;resizeLast=0;collapsible=1;marginBottom=0;whiteSpace=wrap;html=1;" vertex="1" parent="1">
          <mxGeometry x="750" y="-1072" width="210" height="138" as="geometry" />
        </mxCell>
        <mxCell id="ZoevF2g2s9DGprO-lqju-8" value="&lt;br&gt;&lt;span data-lucid-content=&quot;{&amp;quot;t&amp;quot;:&amp;quot;+ ID:Int\n+ nombre:String\n+apellidos:String\n+Dni:String\n+Curso:Int&amp;quot;,&amp;quot;m&amp;quot;:[{&amp;quot;s&amp;quot;:0,&amp;quot;n&amp;quot;:&amp;quot;a&amp;quot;,&amp;quot;v&amp;quot;:&amp;quot;center&amp;quot;},{&amp;quot;s&amp;quot;:0,&amp;quot;n&amp;quot;:&amp;quot;c&amp;quot;,&amp;quot;v&amp;quot;:&amp;quot;333333ff&amp;quot;,&amp;quot;e&amp;quot;:65},{&amp;quot;s&amp;quot;:9,&amp;quot;n&amp;quot;:&amp;quot;a&amp;quot;,&amp;quot;v&amp;quot;:&amp;quot;center&amp;quot;},{&amp;quot;s&amp;quot;:25,&amp;quot;n&amp;quot;:&amp;quot;a&amp;quot;,&amp;quot;v&amp;quot;:&amp;quot;center&amp;quot;},{&amp;quot;s&amp;quot;:43,&amp;quot;n&amp;quot;:&amp;quot;a&amp;quot;,&amp;quot;v&amp;quot;:&amp;quot;center&amp;quot;},{&amp;quot;s&amp;quot;:55,&amp;quot;n&amp;quot;:&amp;quot;a&amp;quot;,&amp;quot;v&amp;quot;:&amp;quot;center&amp;quot;}]}&quot; data-lucid-type=&quot;application/vnd.lucid.text&quot;&gt;&lt;span style=&quot;color:#333333;&quot;&gt;&lt;font style=&quot;vertical-align: inherit;&quot;&gt;&lt;font style=&quot;vertical-align: inherit;&quot;&gt;&lt;font style=&quot;vertical-align: inherit;&quot;&gt;&lt;font style=&quot;vertical-align: inherit;&quot;&gt;&lt;font style=&quot;vertical-align: inherit;&quot;&gt;&lt;font style=&quot;vertical-align: inherit;&quot;&gt;- ID:Long&lt;/font&gt;&lt;/font&gt;&lt;/font&gt;&lt;/font&gt;&lt;/font&gt;&lt;/font&gt;&lt;br&gt;&lt;/span&gt;&lt;span style=&quot;color:#333333;&quot;&gt;&lt;font style=&quot;vertical-align: inherit;&quot;&gt;&lt;font style=&quot;vertical-align: inherit;&quot;&gt;&lt;font style=&quot;vertical-align: inherit;&quot;&gt;&lt;font style=&quot;vertical-align: inherit;&quot;&gt;&lt;font style=&quot;vertical-align: inherit;&quot;&gt;&lt;font style=&quot;vertical-align: inherit;&quot;&gt;-nombre:String&amp;nbsp;&lt;/font&gt;&lt;/font&gt;&lt;/font&gt;&lt;/font&gt;&lt;/font&gt;&lt;/font&gt;&lt;/span&gt;&lt;span style=&quot;color:#333333;&quot;&gt;&lt;br&gt;&lt;/span&gt;&lt;font style=&quot;vertical-align: inherit;&quot;&gt;&lt;font style=&quot;vertical-align: inherit;&quot;&gt;&lt;font style=&quot;vertical-align: inherit;&quot;&gt;&lt;font style=&quot;vertical-align: inherit;&quot;&gt;&lt;font style=&quot;vertical-align: inherit;&quot;&gt;&lt;font style=&quot;vertical-align: inherit;&quot;&gt;-descripcion:String&lt;/font&gt;&lt;/font&gt;&lt;/font&gt;&lt;/font&gt;&lt;/font&gt;&lt;/font&gt;&lt;br&gt;&lt;span style=&quot;color:#333333;&quot;&gt;&lt;br&gt;&lt;/span&gt;&lt;/span&gt;" style="text;strokeColor=none;fillColor=none;align=left;verticalAlign=top;spacingLeft=4;spacingRight=4;overflow=hidden;rotatable=0;points=[[0,0.5],[1,0.5]];portConstraint=eastwest;whiteSpace=wrap;html=1;" vertex="1" parent="ZoevF2g2s9DGprO-lqju-7">
          <mxGeometry y="26" width="210" height="74" as="geometry" />
        </mxCell>
        <mxCell id="ZoevF2g2s9DGprO-lqju-9" value="" style="line;strokeWidth=1;fillColor=none;align=left;verticalAlign=middle;spacingTop=-1;spacingLeft=3;spacingRight=3;rotatable=0;labelPosition=right;points=[];portConstraint=eastwest;strokeColor=inherit;" vertex="1" parent="ZoevF2g2s9DGprO-lqju-7">
          <mxGeometry y="100" width="210" height="8" as="geometry" />
        </mxCell>
        <mxCell id="ZoevF2g2s9DGprO-lqju-10" value="//Getters y Setters" style="text;strokeColor=none;fillColor=none;align=left;verticalAlign=top;spacingLeft=4;spacingRight=4;overflow=hidden;rotatable=0;points=[[0,0.5],[1,0.5]];portConstraint=eastwest;whiteSpace=wrap;html=1;" vertex="1" parent="ZoevF2g2s9DGprO-lqju-7">
          <mxGeometry y="108" width="210" height="30" as="geometry" />
        </mxCell>
        <mxCell id="ZoevF2g2s9DGprO-lqju-13" value="Actividad" style="swimlane;fontStyle=1;align=center;verticalAlign=top;childLayout=stackLayout;horizontal=1;startSize=26;horizontalStack=0;resizeParent=1;resizeParentMax=0;resizeLast=0;collapsible=1;marginBottom=0;whiteSpace=wrap;html=1;" vertex="1" parent="1">
          <mxGeometry x="1050" y="-1072" width="210" height="160" as="geometry" />
        </mxCell>
        <mxCell id="ZoevF2g2s9DGprO-lqju-14" value="&lt;br&gt;&lt;span data-lucid-content=&quot;{&amp;quot;t&amp;quot;:&amp;quot;+ ID:Int\n+ nombre:String\n+apellidos:String\n+Dni:String\n+Curso:Int&amp;quot;,&amp;quot;m&amp;quot;:[{&amp;quot;s&amp;quot;:0,&amp;quot;n&amp;quot;:&amp;quot;a&amp;quot;,&amp;quot;v&amp;quot;:&amp;quot;center&amp;quot;},{&amp;quot;s&amp;quot;:0,&amp;quot;n&amp;quot;:&amp;quot;c&amp;quot;,&amp;quot;v&amp;quot;:&amp;quot;333333ff&amp;quot;,&amp;quot;e&amp;quot;:65},{&amp;quot;s&amp;quot;:9,&amp;quot;n&amp;quot;:&amp;quot;a&amp;quot;,&amp;quot;v&amp;quot;:&amp;quot;center&amp;quot;},{&amp;quot;s&amp;quot;:25,&amp;quot;n&amp;quot;:&amp;quot;a&amp;quot;,&amp;quot;v&amp;quot;:&amp;quot;center&amp;quot;},{&amp;quot;s&amp;quot;:43,&amp;quot;n&amp;quot;:&amp;quot;a&amp;quot;,&amp;quot;v&amp;quot;:&amp;quot;center&amp;quot;},{&amp;quot;s&amp;quot;:55,&amp;quot;n&amp;quot;:&amp;quot;a&amp;quot;,&amp;quot;v&amp;quot;:&amp;quot;center&amp;quot;}]}&quot; data-lucid-type=&quot;application/vnd.lucid.text&quot;&gt;- ID:Long&lt;br&gt;-nombre:String&amp;nbsp;&lt;br&gt;&lt;span style=&quot;color: rgb(51, 51, 51);&quot;&gt;-peso:Double&lt;br&gt;&lt;/span&gt;-tipo:String&lt;br&gt;&lt;span style=&quot;color: rgb(51, 51, 51);&quot;&gt;-IdMateria:Materia&lt;/span&gt;&lt;span style=&quot;color:#333333;&quot;&gt;&lt;br&gt;&lt;/span&gt;&lt;/span&gt;" style="text;strokeColor=none;fillColor=none;align=left;verticalAlign=top;spacingLeft=4;spacingRight=4;overflow=hidden;rotatable=0;points=[[0,0.5],[1,0.5]];portConstraint=eastwest;whiteSpace=wrap;html=1;" vertex="1" parent="ZoevF2g2s9DGprO-lqju-13">
          <mxGeometry y="26" width="210" height="94" as="geometry" />
        </mxCell>
        <mxCell id="ZoevF2g2s9DGprO-lqju-15" value="" style="line;strokeWidth=1;fillColor=none;align=left;verticalAlign=middle;spacingTop=-1;spacingLeft=3;spacingRight=3;rotatable=0;labelPosition=right;points=[];portConstraint=eastwest;strokeColor=inherit;" vertex="1" parent="ZoevF2g2s9DGprO-lqju-13">
          <mxGeometry y="120" width="210" height="8" as="geometry" />
        </mxCell>
        <mxCell id="ZoevF2g2s9DGprO-lqju-16" value="//Getters y Setters" style="text;strokeColor=none;fillColor=none;align=left;verticalAlign=top;spacingLeft=4;spacingRight=4;overflow=hidden;rotatable=0;points=[[0,0.5],[1,0.5]];portConstraint=eastwest;whiteSpace=wrap;html=1;" vertex="1" parent="ZoevF2g2s9DGprO-lqju-13">
          <mxGeometry y="128" width="210" height="32" as="geometry" />
        </mxCell>
        <mxCell id="ZoevF2g2s9DGprO-lqju-17" value="Rol" style="swimlane;fontStyle=1;align=center;verticalAlign=top;childLayout=stackLayout;horizontal=1;startSize=26;horizontalStack=0;resizeParent=1;resizeParentMax=0;resizeLast=0;collapsible=1;marginBottom=0;whiteSpace=wrap;html=1;" vertex="1" parent="1">
          <mxGeometry x="700" y="-845" width="210" height="120" as="geometry" />
        </mxCell>
        <mxCell id="ZoevF2g2s9DGprO-lqju-18" value="&lt;font style=&quot;font-size: 12px;&quot;&gt;&lt;br&gt;&lt;span data-lucid-content=&quot;{&amp;quot;t&amp;quot;:&amp;quot;+ ID:Int\n+ nombre:String\n+apellidos:String\n+Dni:String\n+Curso:Int&amp;quot;,&amp;quot;m&amp;quot;:[{&amp;quot;s&amp;quot;:0,&amp;quot;n&amp;quot;:&amp;quot;a&amp;quot;,&amp;quot;v&amp;quot;:&amp;quot;center&amp;quot;},{&amp;quot;s&amp;quot;:0,&amp;quot;n&amp;quot;:&amp;quot;c&amp;quot;,&amp;quot;v&amp;quot;:&amp;quot;333333ff&amp;quot;,&amp;quot;e&amp;quot;:65},{&amp;quot;s&amp;quot;:9,&amp;quot;n&amp;quot;:&amp;quot;a&amp;quot;,&amp;quot;v&amp;quot;:&amp;quot;center&amp;quot;},{&amp;quot;s&amp;quot;:25,&amp;quot;n&amp;quot;:&amp;quot;a&amp;quot;,&amp;quot;v&amp;quot;:&amp;quot;center&amp;quot;},{&amp;quot;s&amp;quot;:43,&amp;quot;n&amp;quot;:&amp;quot;a&amp;quot;,&amp;quot;v&amp;quot;:&amp;quot;center&amp;quot;},{&amp;quot;s&amp;quot;:55,&amp;quot;n&amp;quot;:&amp;quot;a&amp;quot;,&amp;quot;v&amp;quot;:&amp;quot;center&amp;quot;}]}&quot; data-lucid-type=&quot;application/vnd.lucid.text&quot;&gt;&lt;span style=&quot;color:#333333;&quot;&gt;- ID:Long&lt;br&gt;&lt;/span&gt;&lt;span style=&quot;color:#333333;&quot;&gt;- nombre:String&lt;br&gt;&lt;/span&gt;&lt;span style=&quot;color:#333333;&quot;&gt;- permisos:String&lt;br&gt;&lt;br&gt;&lt;/span&gt;&lt;/span&gt;&lt;br&gt;&lt;/font&gt;" style="text;strokeColor=none;fillColor=none;align=left;verticalAlign=top;spacingLeft=4;spacingRight=4;overflow=hidden;rotatable=0;points=[[0,0.5],[1,0.5]];portConstraint=eastwest;whiteSpace=wrap;html=1;" vertex="1" parent="ZoevF2g2s9DGprO-lqju-17">
          <mxGeometry y="26" width="210" height="64" as="geometry" />
        </mxCell>
        <mxCell id="ZoevF2g2s9DGprO-lqju-43" value="" style="line;strokeWidth=1;fillColor=none;align=left;verticalAlign=middle;spacingTop=-1;spacingLeft=3;spacingRight=3;rotatable=0;labelPosition=right;points=[];portConstraint=eastwest;strokeColor=inherit;" vertex="1" parent="ZoevF2g2s9DGprO-lqju-17">
          <mxGeometry y="90" width="210" height="8" as="geometry" />
        </mxCell>
        <mxCell id="ZoevF2g2s9DGprO-lqju-20" value="//Getters y Setters" style="text;strokeColor=none;fillColor=none;align=left;verticalAlign=top;spacingLeft=4;spacingRight=4;overflow=hidden;rotatable=0;points=[[0,0.5],[1,0.5]];portConstraint=eastwest;whiteSpace=wrap;html=1;" vertex="1" parent="ZoevF2g2s9DGprO-lqju-17">
          <mxGeometry y="98" width="210" height="22" as="geometry" />
        </mxCell>
        <mxCell id="ZoevF2g2s9DGprO-lqju-37" value="Usuario" style="swimlane;fontStyle=1;align=center;verticalAlign=top;childLayout=stackLayout;horizontal=1;startSize=26;horizontalStack=0;resizeParent=1;resizeParentMax=0;resizeLast=0;collapsible=1;marginBottom=0;whiteSpace=wrap;html=1;" vertex="1" parent="1">
          <mxGeometry x="990" y="-850" width="210" height="140" as="geometry" />
        </mxCell>
        <mxCell id="ZoevF2g2s9DGprO-lqju-38" value="&lt;font style=&quot;font-size: 12px;&quot;&gt;&lt;span data-lucid-content=&quot;{&amp;quot;t&amp;quot;:&amp;quot;+ ID:Int\n+ nombre:String\n+apellidos:String\n+Dni:String\n+Curso:Int&amp;quot;,&amp;quot;m&amp;quot;:[{&amp;quot;s&amp;quot;:0,&amp;quot;n&amp;quot;:&amp;quot;a&amp;quot;,&amp;quot;v&amp;quot;:&amp;quot;center&amp;quot;},{&amp;quot;s&amp;quot;:0,&amp;quot;n&amp;quot;:&amp;quot;c&amp;quot;,&amp;quot;v&amp;quot;:&amp;quot;333333ff&amp;quot;,&amp;quot;e&amp;quot;:65},{&amp;quot;s&amp;quot;:9,&amp;quot;n&amp;quot;:&amp;quot;a&amp;quot;,&amp;quot;v&amp;quot;:&amp;quot;center&amp;quot;},{&amp;quot;s&amp;quot;:25,&amp;quot;n&amp;quot;:&amp;quot;a&amp;quot;,&amp;quot;v&amp;quot;:&amp;quot;center&amp;quot;},{&amp;quot;s&amp;quot;:43,&amp;quot;n&amp;quot;:&amp;quot;a&amp;quot;,&amp;quot;v&amp;quot;:&amp;quot;center&amp;quot;},{&amp;quot;s&amp;quot;:55,&amp;quot;n&amp;quot;:&amp;quot;a&amp;quot;,&amp;quot;v&amp;quot;:&amp;quot;center&amp;quot;}]}&quot; data-lucid-type=&quot;application/vnd.lucid.text&quot;&gt;&lt;span style=&quot;color:#333333;&quot;&gt;- ID:Int&lt;br&gt;&lt;/span&gt;&lt;span style=&quot;color:#333333;&quot;&gt;- nombre:String&lt;/span&gt;&lt;br&gt;-contrasenia&lt;span style=&quot;color: rgb(51, 51, 51);&quot;&gt;:String&lt;br&gt;&lt;/span&gt;-correoElectronico: String&lt;br&gt;-Idrol: Rol&lt;br&gt;&lt;span style=&quot;color:#333333;&quot;&gt;&lt;br&gt;&lt;br&gt;&lt;/span&gt;&lt;/span&gt;&lt;br&gt;&lt;/font&gt;" style="text;strokeColor=none;fillColor=none;align=left;verticalAlign=top;spacingLeft=4;spacingRight=4;overflow=hidden;rotatable=0;points=[[0,0.5],[1,0.5]];portConstraint=eastwest;whiteSpace=wrap;html=1;" vertex="1" parent="ZoevF2g2s9DGprO-lqju-37">
          <mxGeometry y="26" width="210" height="74" as="geometry" />
        </mxCell>
        <mxCell id="ZoevF2g2s9DGprO-lqju-45" value="" style="line;strokeWidth=1;fillColor=none;align=left;verticalAlign=middle;spacingTop=-1;spacingLeft=3;spacingRight=3;rotatable=0;labelPosition=right;points=[];portConstraint=eastwest;strokeColor=inherit;" vertex="1" parent="ZoevF2g2s9DGprO-lqju-37">
          <mxGeometry y="100" width="210" height="8" as="geometry" />
        </mxCell>
        <mxCell id="ZoevF2g2s9DGprO-lqju-39" value="//Getters y Setters" style="text;strokeColor=none;fillColor=none;align=left;verticalAlign=top;spacingLeft=4;spacingRight=4;overflow=hidden;rotatable=0;points=[[0,0.5],[1,0.5]];portConstraint=eastwest;whiteSpace=wrap;html=1;" vertex="1" parent="ZoevF2g2s9DGprO-lqju-37">
          <mxGeometry y="108" width="210" height="32" as="geometry" />
        </mxCell>
        <mxCell id="9gO-fntn_X0TvMQPW0JF-4" value="EntregaActividad" style="swimlane;fontStyle=1;align=center;verticalAlign=top;childLayout=stackLayout;horizontal=1;startSize=26;horizontalStack=0;resizeParent=1;resizeParentMax=0;resizeLast=0;collapsible=1;marginBottom=0;whiteSpace=wrap;html=1;" vertex="1" parent="1">
          <mxGeometry x="430" y="-840" width="210" height="150" as="geometry" />
        </mxCell>
        <mxCell id="9gO-fntn_X0TvMQPW0JF-5" value="&lt;font style=&quot;font-size: 12px;&quot;&gt;&lt;br&gt;&lt;span data-lucid-content=&quot;{&amp;quot;t&amp;quot;:&amp;quot;+ ID:Int\n+ nombre:String\n+apellidos:String\n+Dni:String\n+Curso:Int&amp;quot;,&amp;quot;m&amp;quot;:[{&amp;quot;s&amp;quot;:0,&amp;quot;n&amp;quot;:&amp;quot;a&amp;quot;,&amp;quot;v&amp;quot;:&amp;quot;center&amp;quot;},{&amp;quot;s&amp;quot;:0,&amp;quot;n&amp;quot;:&amp;quot;c&amp;quot;,&amp;quot;v&amp;quot;:&amp;quot;333333ff&amp;quot;,&amp;quot;e&amp;quot;:65},{&amp;quot;s&amp;quot;:9,&amp;quot;n&amp;quot;:&amp;quot;a&amp;quot;,&amp;quot;v&amp;quot;:&amp;quot;center&amp;quot;},{&amp;quot;s&amp;quot;:25,&amp;quot;n&amp;quot;:&amp;quot;a&amp;quot;,&amp;quot;v&amp;quot;:&amp;quot;center&amp;quot;},{&amp;quot;s&amp;quot;:43,&amp;quot;n&amp;quot;:&amp;quot;a&amp;quot;,&amp;quot;v&amp;quot;:&amp;quot;center&amp;quot;},{&amp;quot;s&amp;quot;:55,&amp;quot;n&amp;quot;:&amp;quot;a&amp;quot;,&amp;quot;v&amp;quot;:&amp;quot;center&amp;quot;}]}&quot; data-lucid-type=&quot;application/vnd.lucid.text&quot;&gt;&lt;span style=&quot;color:#333333;&quot;&gt;- ID:Long&lt;br&gt;&lt;/span&gt;- idActividad:Long&lt;br&gt;- idMatricula:Matricula&lt;br&gt;&lt;span style=&quot;color: rgb(51, 51, 51);&quot;&gt;- notaParcial:Double&lt;/span&gt;&lt;span style=&quot;color: rgb(51, 51, 51);&quot;&gt;&lt;br&gt;&lt;/span&gt;&lt;span style=&quot;color:#333333;&quot;&gt;&lt;br&gt;&lt;/span&gt;&lt;span style=&quot;color:#333333;&quot;&gt;&lt;br&gt;&lt;/span&gt;&lt;span style=&quot;color:#333333;&quot;&gt;:&lt;br&gt;&lt;/span&gt;&lt;/span&gt;&lt;br&gt;&lt;/font&gt;" style="text;strokeColor=none;fillColor=none;align=left;verticalAlign=top;spacingLeft=4;spacingRight=4;overflow=hidden;rotatable=0;points=[[0,0.5],[1,0.5]];portConstraint=eastwest;whiteSpace=wrap;html=1;" vertex="1" parent="9gO-fntn_X0TvMQPW0JF-4">
          <mxGeometry y="26" width="210" height="84" as="geometry" />
        </mxCell>
        <mxCell id="9gO-fntn_X0TvMQPW0JF-6" value="" style="line;strokeWidth=1;fillColor=none;align=left;verticalAlign=middle;spacingTop=-1;spacingLeft=3;spacingRight=3;rotatable=0;labelPosition=right;points=[];portConstraint=eastwest;strokeColor=inherit;" vertex="1" parent="9gO-fntn_X0TvMQPW0JF-4">
          <mxGeometry y="110" width="210" height="8" as="geometry" />
        </mxCell>
        <mxCell id="9gO-fntn_X0TvMQPW0JF-7" value="//Getters y Setters" style="text;strokeColor=none;fillColor=none;align=left;verticalAlign=top;spacingLeft=4;spacingRight=4;overflow=hidden;rotatable=0;points=[[0,0.5],[1,0.5]];portConstraint=eastwest;whiteSpace=wrap;html=1;" vertex="1" parent="9gO-fntn_X0TvMQPW0JF-4">
          <mxGeometry y="118" width="210" height="32" as="geometry" />
        </mxCell>
        <mxCell id="Scy2ui8BX5EEfjPgYY8_-1" value="Matricula" style="swimlane;fontStyle=1;align=center;verticalAlign=top;childLayout=stackLayout;horizontal=1;startSize=26;horizontalStack=0;resizeParent=1;resizeParentMax=0;resizeLast=0;collapsible=1;marginBottom=0;whiteSpace=wrap;html=1;" vertex="1" parent="1">
          <mxGeometry x="414" y="-1076" width="210" height="150" as="geometry" />
        </mxCell>
        <mxCell id="Scy2ui8BX5EEfjPgYY8_-2" value="&lt;font style=&quot;font-size: 12px;&quot;&gt;&lt;br&gt;&lt;span data-lucid-content=&quot;{&amp;quot;t&amp;quot;:&amp;quot;+ ID:Int\n+ nombre:String\n+apellidos:String\n+Dni:String\n+Curso:Int&amp;quot;,&amp;quot;m&amp;quot;:[{&amp;quot;s&amp;quot;:0,&amp;quot;n&amp;quot;:&amp;quot;a&amp;quot;,&amp;quot;v&amp;quot;:&amp;quot;center&amp;quot;},{&amp;quot;s&amp;quot;:0,&amp;quot;n&amp;quot;:&amp;quot;c&amp;quot;,&amp;quot;v&amp;quot;:&amp;quot;333333ff&amp;quot;,&amp;quot;e&amp;quot;:65},{&amp;quot;s&amp;quot;:9,&amp;quot;n&amp;quot;:&amp;quot;a&amp;quot;,&amp;quot;v&amp;quot;:&amp;quot;center&amp;quot;},{&amp;quot;s&amp;quot;:25,&amp;quot;n&amp;quot;:&amp;quot;a&amp;quot;,&amp;quot;v&amp;quot;:&amp;quot;center&amp;quot;},{&amp;quot;s&amp;quot;:43,&amp;quot;n&amp;quot;:&amp;quot;a&amp;quot;,&amp;quot;v&amp;quot;:&amp;quot;center&amp;quot;},{&amp;quot;s&amp;quot;:55,&amp;quot;n&amp;quot;:&amp;quot;a&amp;quot;,&amp;quot;v&amp;quot;:&amp;quot;center&amp;quot;}]}&quot; data-lucid-type=&quot;application/vnd.lucid.text&quot;&gt;&lt;span style=&quot;color:#333333;&quot;&gt;- ID:Long&lt;br&gt;&lt;/span&gt;- IdEstudiante:Esudiante&lt;br&gt;- IdMateria:Materia&lt;br&gt;&lt;span style=&quot;color: rgb(51, 51, 51);&quot;&gt;- notaFinal:Double&lt;/span&gt;&lt;span style=&quot;color:#333333;&quot;&gt;&lt;br&gt;&lt;/span&gt;&lt;span style=&quot;color:#333333;&quot;&gt;&lt;br&gt;&lt;/span&gt;&lt;span style=&quot;color:#333333;&quot;&gt;:&lt;br&gt;&lt;/span&gt;&lt;/span&gt;&lt;br&gt;&lt;/font&gt;" style="text;strokeColor=none;fillColor=none;align=left;verticalAlign=top;spacingLeft=4;spacingRight=4;overflow=hidden;rotatable=0;points=[[0,0.5],[1,0.5]];portConstraint=eastwest;whiteSpace=wrap;html=1;" vertex="1" parent="Scy2ui8BX5EEfjPgYY8_-1">
          <mxGeometry y="26" width="210" height="84" as="geometry" />
        </mxCell>
        <mxCell id="Scy2ui8BX5EEfjPgYY8_-3" value="" style="line;strokeWidth=1;fillColor=none;align=left;verticalAlign=middle;spacingTop=-1;spacingLeft=3;spacingRight=3;rotatable=0;labelPosition=right;points=[];portConstraint=eastwest;strokeColor=inherit;" vertex="1" parent="Scy2ui8BX5EEfjPgYY8_-1">
          <mxGeometry y="110" width="210" height="8" as="geometry" />
        </mxCell>
        <mxCell id="Scy2ui8BX5EEfjPgYY8_-4" value="//Getters y Setters" style="text;strokeColor=none;fillColor=none;align=left;verticalAlign=top;spacingLeft=4;spacingRight=4;overflow=hidden;rotatable=0;points=[[0,0.5],[1,0.5]];portConstraint=eastwest;whiteSpace=wrap;html=1;" vertex="1" parent="Scy2ui8BX5EEfjPgYY8_-1">
          <mxGeometry y="118" width="210" height="32" as="geometry" />
        </mxCell>
        <mxCell id="bInxQB5rRRTCeHQ2iJzO-4" value="Relation" style="endArrow=open;html=1;endSize=12;startArrow=diamondThin;startSize=14;startFill=0;edgeStyle=orthogonalEdgeStyle;rounded=0;" edge="1" parent="1">
          <mxGeometry x="-0.0588" relative="1" as="geometry">
            <mxPoint x="240" y="-1010" as="sourcePoint" />
            <mxPoint x="410" y="-1010" as="targetPoint" />
            <mxPoint as="offset" />
            <Array as="points">
              <mxPoint x="330" y="-1010" />
              <mxPoint x="330" y="-1010" />
            </Array>
          </mxGeometry>
        </mxCell>
        <mxCell id="bInxQB5rRRTCeHQ2iJzO-5" value="1" style="edgeLabel;resizable=0;html=1;align=left;verticalAlign=top;" connectable="0" vertex="1" parent="bInxQB5rRRTCeHQ2iJzO-4">
          <mxGeometry x="-1" relative="1" as="geometry" />
        </mxCell>
        <mxCell id="bInxQB5rRRTCeHQ2iJzO-6" value="n" style="edgeLabel;resizable=0;html=1;align=right;verticalAlign=top;" connectable="0" vertex="1" parent="bInxQB5rRRTCeHQ2iJzO-4">
          <mxGeometry x="1" relative="1" as="geometry" />
        </mxCell>
        <mxCell id="bInxQB5rRRTCeHQ2iJzO-7" value="Relation" style="endArrow=open;html=1;endSize=12;startArrow=diamondThin;startSize=14;startFill=0;edgeStyle=orthogonalEdgeStyle;rounded=0;" edge="1" parent="1">
          <mxGeometry x="-0.0344" relative="1" as="geometry">
            <mxPoint x="730" y="-996" as="sourcePoint" />
            <mxPoint x="630" y="-996.21" as="targetPoint" />
            <mxPoint y="1" as="offset" />
            <Array as="points">
              <mxPoint x="736" y="-996.21" />
              <mxPoint x="720" y="-996.21" />
              <mxPoint x="720" y="-997.21" />
            </Array>
          </mxGeometry>
        </mxCell>
        <mxCell id="bInxQB5rRRTCeHQ2iJzO-8" value="1" style="edgeLabel;resizable=0;html=1;align=left;verticalAlign=top;" connectable="0" vertex="1" parent="bInxQB5rRRTCeHQ2iJzO-7">
          <mxGeometry x="-1" relative="1" as="geometry" />
        </mxCell>
        <mxCell id="bInxQB5rRRTCeHQ2iJzO-9" value="n" style="edgeLabel;resizable=0;html=1;align=right;verticalAlign=top;" connectable="0" vertex="1" parent="bInxQB5rRRTCeHQ2iJzO-7">
          <mxGeometry x="1" relative="1" as="geometry" />
        </mxCell>
        <mxCell id="bInxQB5rRRTCeHQ2iJzO-10" value="Relation" style="endArrow=open;html=1;endSize=12;startArrow=diamondThin;startSize=14;startFill=0;edgeStyle=orthogonalEdgeStyle;rounded=0;" edge="1" parent="1">
          <mxGeometry x="-0.0343" y="-1" relative="1" as="geometry">
            <mxPoint x="960" y="-1001.5" as="sourcePoint" />
            <mxPoint x="1040" y="-1001" as="targetPoint" />
            <mxPoint y="1" as="offset" />
            <Array as="points">
              <mxPoint x="1016" y="-1001" />
              <mxPoint x="1016" y="-1001" />
            </Array>
          </mxGeometry>
        </mxCell>
        <mxCell id="bInxQB5rRRTCeHQ2iJzO-11" value="1" style="edgeLabel;resizable=0;html=1;align=left;verticalAlign=top;" connectable="0" vertex="1" parent="bInxQB5rRRTCeHQ2iJzO-10">
          <mxGeometry x="-1" relative="1" as="geometry" />
        </mxCell>
        <mxCell id="bInxQB5rRRTCeHQ2iJzO-12" value="n" style="edgeLabel;resizable=0;html=1;align=right;verticalAlign=top;" connectable="0" vertex="1" parent="bInxQB5rRRTCeHQ2iJzO-10">
          <mxGeometry x="1" relative="1" as="geometry" />
        </mxCell>
        <mxCell id="bInxQB5rRRTCeHQ2iJzO-13" value="Relation" style="endArrow=open;html=1;endSize=12;startArrow=diamondThin;startSize=14;startFill=0;edgeStyle=orthogonalEdgeStyle;rounded=0;exitX=0.505;exitY=1.188;exitDx=0;exitDy=0;exitPerimeter=0;" edge="1" parent="1" source="Scy2ui8BX5EEfjPgYY8_-4" target="9gO-fntn_X0TvMQPW0JF-4">
          <mxGeometry x="-0.0343" y="-1" relative="1" as="geometry">
            <mxPoint x="490" y="-870" as="sourcePoint" />
            <mxPoint x="570" y="-869.5" as="targetPoint" />
            <mxPoint y="1" as="offset" />
            <Array as="points">
              <mxPoint x="520" y="-870" />
              <mxPoint x="530" y="-870" />
              <mxPoint x="530" y="-869" />
              <mxPoint x="520" y="-869" />
            </Array>
          </mxGeometry>
        </mxCell>
        <mxCell id="bInxQB5rRRTCeHQ2iJzO-14" value="1" style="edgeLabel;resizable=0;html=1;align=left;verticalAlign=top;" connectable="0" vertex="1" parent="bInxQB5rRRTCeHQ2iJzO-13">
          <mxGeometry x="-1" relative="1" as="geometry" />
        </mxCell>
        <mxCell id="bInxQB5rRRTCeHQ2iJzO-15" value="n" style="edgeLabel;resizable=0;html=1;align=right;verticalAlign=top;" connectable="0" vertex="1" parent="bInxQB5rRRTCeHQ2iJzO-13">
          <mxGeometry x="1" relative="1" as="geometry" />
        </mxCell>
        <mxCell id="bInxQB5rRRTCeHQ2iJzO-16" value="n" style="edgeLabel;html=1;align=center;verticalAlign=middle;resizable=0;points=[];" connectable="0" vertex="1" parent="bInxQB5rRRTCeHQ2iJzO-13">
          <mxGeometry x="0.7958" y="4" relative="1" as="geometry">
            <mxPoint as="offset" />
          </mxGeometry>
        </mxCell>
        <mxCell id="bInxQB5rRRTCeHQ2iJzO-17" value="Relation" style="endArrow=open;html=1;endSize=12;startArrow=diamondThin;startSize=14;startFill=0;edgeStyle=orthogonalEdgeStyle;rounded=0;" edge="1" parent="1">
          <mxGeometry x="-0.0343" y="-1" relative="1" as="geometry">
            <mxPoint x="910" y="-780.5" as="sourcePoint" />
            <mxPoint x="990" y="-780" as="targetPoint" />
            <mxPoint y="1" as="offset" />
            <Array as="points">
              <mxPoint x="966" y="-780" />
              <mxPoint x="966" y="-780" />
            </Array>
          </mxGeometry>
        </mxCell>
        <mxCell id="bInxQB5rRRTCeHQ2iJzO-18" value="1" style="edgeLabel;resizable=0;html=1;align=left;verticalAlign=top;" connectable="0" vertex="1" parent="bInxQB5rRRTCeHQ2iJzO-17">
          <mxGeometry x="-1" relative="1" as="geometry" />
        </mxCell>
        <mxCell id="bInxQB5rRRTCeHQ2iJzO-19" value="n" style="edgeLabel;resizable=0;html=1;align=right;verticalAlign=top;" connectable="0" vertex="1" parent="bInxQB5rRRTCeHQ2iJzO-17">
          <mxGeometry x="1" relative="1" as="geometry" />
        </mxCell>
      </root>
    </mxGraphModel>
  </diagram>
</mxfile>
